<svg id="efg7zdnh0sye1" xmlns="http://www.w3.org/2000/svg" xmlns:xlink="http://www.w3.org/1999/xlink" viewBox="0 0 879.500000 681.350000" shape-rendering="geometricPrecision" text-rendering="geometricPrecision"><style><![CDATA[#efg7zdnh0sye6 {animation: efg7zdnh0sye6_f_o 4000ms linear infinite normal forwards}@keyframes efg7zdnh0sye6_f_o { 0% {fill-opacity: 1;animation-timing-function: cubic-bezier(0.420000,0,0.580000,1)} 50% {fill-opacity: 0.500000} 100% {fill-opacity: 1} }]]></style><circle id="efg7zdnh0sye2" r="189.736404" transform="matrix(1.84797598391286 0 0 0.51072961393551 418.75000000372842 588.57427482152320)" fill="rgb(19,18,18)" fill-opacity="0.75" stroke="none" stroke-width="1"/><path id="efg7zdnh0sye3" d="M713.725000,293.084730L713.725000,358.764730C713.721626,360.028062,712.698332,361.051356,711.435000,361.054730L709.805110,361.054730L709.805110,703.204730C709.804006,722.920865,693.821175,738.903664,674.105040,738.904730L460.315090,738.904730C450.848052,738.903828,441.769163,735.141982,435.075888,728.446843C428.382613,721.751704,424.623295,712.671768,424.625030,703.204730L424.625030,373.054730L423.445030,373.054730C422.553678,373.056062,421.829217,372.336074,421.825030,371.444730L421.825030,334.064730C421.824953,333.635056,421.995606,333.222958,422.299432,332.919132C422.603258,332.615306,423.015356,332.444653,423.445030,332.444730L424.625030,332.444730L424.625030,318.364730L423.435000,318.364730C422.499237,318.361130,421.743106,317.600497,421.745060,316.664730L421.745060,279.794730C421.747434,278.862377,422.502647,278.107137,423.435000,278.104730L424.625000,278.104730L424.625000,258.884730L423.415000,258.884730C423.017012,258.885262,422.635173,258.727397,422.353753,258.445977C422.072333,258.164557,421.914468,257.782718,421.915000,257.384730L421.915000,237.264730C421.913123,236.433904,422.584180,235.758373,423.415000,235.754730L424.625000,235.754730L424.625000,195.014730C424.625751,175.303975,440.604305,159.325448,460.315060,159.324730L674.105000,159.324730C693.817709,159.324641,709.799598,175.302022,709.805070,195.014730L709.805070,290.794730L711.435000,290.794730C712.698343,290.798076,713.721654,291.821387,713.725000,293.084730Z" transform="matrix(1 0 0 1 -160.25000000000000 -159.32499999999999)" fill="rgb(63,61,86)" stroke="none" stroke-width="1"/><rect id="efg7zdnh0sye4" width="39.823400" height="8.086420" rx="2.541890" ry="0" transform="matrix(1 0 0 1 379.97899999999998 18.30680000000000)" fill="rgb(230,232,236)" stroke="none" stroke-width="1"/><circle id="efg7zdnh0sye5" r="4.586650" transform="matrix(1 0 0 1 430.41000000000003 22.35000000000000)" fill="rgb(230,232,236)" stroke="none" stroke-width="1"/><path id="efg7zdnh0sye6" d="M692.710000,202.075240L692.710000,706.165240C692.716489,712.799014,689.805512,719.100034,684.750000,723.395240C680.652323,726.887825,675.444153,728.805878,670.060000,728.805240L465.410000,728.805240C461.768760,728.810805,458.180150,727.935953,454.950000,726.255240C454.191141,725.866633,453.456468,725.432508,452.750000,724.955240C446.504289,720.741311,442.760435,713.699569,442.760000,706.165240L442.760000,202.075240C442.759735,196.068005,445.145982,190.306735,449.393738,186.058978C453.641495,181.811222,459.402765,179.424975,465.410000,179.425240L496.040000,179.425240L496.040000,183.355240C496.040083,193.655316,504.389924,202.005157,514.690000,202.005240L618.770000,202.005240C629.070090,202.005190,637.419950,193.655330,637.420000,183.355240L637.420000,179.425240L670.060000,179.425240C676.067752,179.423287,681.830003,181.808992,686.078125,186.057115C690.326248,190.305237,692.711953,196.067488,692.710000,202.075240Z" transform="matrix(1 0 0 1 -160.25000000000000 -159.32499999999999)" fill="rgb(140,82,255)" stroke="none" stroke-width="1"/><path id="efg7zdnh0sye7" d="M692.710000,634.005240L692.710000,706.165240C692.716489,712.799014,689.805512,719.100034,684.750000,723.395240C680.652323,726.887825,675.444153,728.805878,670.060000,728.805240L465.410000,728.805240C461.768760,728.810805,458.180150,727.935953,454.950000,726.255240C454.191141,725.866633,453.456468,725.432508,452.750000,724.955240C446.504289,720.741311,442.760435,713.699569,442.760000,706.165240L442.760000,634.035240C513.827161,570.153422,621.627506,570.140483,692.710000,634.005240Z" transform="matrix(1 0 0 1 -160.25000000000000 -159.32499999999999)" opacity="0.3" fill="rgb(255,255,255)" stroke="none" stroke-width="1"/><path id="efg7zdnh0sye8" d="M680.540000,726.235280C677.308137,727.932756,673.710516,728.814997,670.060000,728.805280L465.410000,728.805280C461.768760,728.810845,458.180150,727.935993,454.950000,726.255280C473.895261,680.691293,518.392611,650.999650,567.738329,650.995275C617.084046,650.990900,661.586660,680.674653,680.540000,726.235280Z" transform="matrix(1 0 0 1 -160.25000000000000 -159.32499999999999)" opacity="0.3" fill="rgb(255,255,255)" stroke="none" stroke-width="1"/><path id="efg7zdnh0sye9" d="M636,727.444830C634.044326,728.472013,631.867322,729.005879,629.658310,729L505.819570,729C503.616171,729.003358,501.444622,728.473952,499.489990,727.456900C510.954247,699.885035,537.880679,681.917916,567.740969,681.915275C597.601259,681.912635,624.530868,699.874992,636,727.444830Z" transform="matrix(1 0 0 1 -160.25000000000000 -159.32499999999999)" opacity="0.3" fill="rgb(255,255,255)" stroke="none" stroke-width="1"/><path id="efg7zdnh0sye10" d="M619.795900,374.575200C599.267090,374.575200,576.737790,370.666020,559.149900,357.475100C534.662600,339.109860,504.493160,340.089840,483.496580,344.146970C469.549770,346.864382,456.012778,351.373417,443.222170,357.561970L442.297360,355.788530C455.244141,349.519486,468.946820,344.949904,483.064940,342.193320C504.474120,338.049760,535.261720,337.059530,560.350100,355.875450C607.349610,391.124960,691.507810,359.465780,692.351560,359.143030L693.068360,361.010210C677.286498,366.635467,660.963854,370.609030,644.362300,372.867150C636.220162,373.977966,628.013419,374.548563,619.795900,374.575200Z" transform="matrix(1 0 0 1 -160.25000000000000 -159.32499999999999)" fill="rgb(255,255,255)" stroke="none" stroke-width="1"/><path id="efg7zdnh0sye11" d="M442.750000,356.675280C442.750000,356.675280,511.750000,339.962990,559.750000,362.845110C607.750000,385.727230,692.750000,362.675280,692.750000,362.675280" transform="matrix(1 0 0 1 -160.25000000000000 -159.32499999999999)" opacity="0.3" fill="rgb(255,255,255)" stroke="none" stroke-width="1"/><path id="efg7zdnh0sye12" d="M507.891110,382.636230C499.555841,382.598855,491.243020,381.768784,483.064940,380.157230C468.946820,377.400637,455.244142,372.831049,442.297360,366.562000L443.222170,364.788560C456.012776,370.977118,469.549768,375.486154,483.496580,378.203560C504.492190,382.260200,534.662110,383.240670,559.149900,364.875440C584.216310,346.075630,619.327150,346.128370,644.362300,349.483350C660.963853,351.741469,677.286497,355.715029,693.068360,361.340280L692.351560,363.207470C691.506840,362.883740,607.350560,331.224070,560.350100,366.475050C543.898000,378.814450,524.993160,382.636230,507.891110,382.636230Z" transform="matrix(1 0 0 1 -160.25000000000000 -159.32499999999999)" opacity="0.3" fill="rgb(255,255,255)" stroke="none" stroke-width="1"/><path id="efg7zdnh0sye13" d="M508.231000,374.583500C473.596720,374.583500,442.840370,362.158200,442.379000,361.968260L443.140720,360.118650C443.825290,360.400880,512.229090,388.018070,559.240810,360.183110C607.065520,331.863280,692.146570,357.142110,693.000090,357.400880L692.420010,359.314940C691.575290,359.059080,607.327240,334.033690,560.259370,361.903810C544.196780,371.415000,525.718750,374.583500,508.231000,374.583500Z" transform="matrix(1 0 0 1 -160.25000000000000 -159.32499999999999)" opacity="0.3" fill="rgb(255,255,255)" stroke="none" stroke-width="1"/><path id="efg7zdnh0sye14" d="M442.760000,359.505450C442.760000,359.505450,511.750000,382.387570,559.750000,359.505450C607.750000,336.623330,692.710000,357.343360,692.710000,357.343360" transform="matrix(1 0 0 1 -160.25000000000000 -159.32499999999999)" opacity="0.3" fill="rgb(255,255,255)" stroke="none" stroke-width="1"/><path id="efg7zdnh0sye15" d="M710.519130,420.724690L710.519130,449.877470C710.519130,449.877470,712.851360,482.528600,725.678580,498.854160C725.678580,498.854160,746.668580,528.590000,749.583870,522.176390L745.993420,501.061170L733.841370,489.525270L727.427750,453.375810L725.678580,420.724690Z" transform="matrix(1 0 0 1 -160.25000000000000 -159.32499999999999)" fill="rgb(255,184,184)" stroke="none" stroke-width="1"/><polygon id="efg7zdnh0sye16" points="679.124000,524.941000 679.124000,546.514000 661.633000,552.928000 661.633000,527.856000 679.124000,524.941000" fill="rgb(255,184,184)" stroke="none" stroke-width="1"/><polygon id="efg7zdnh0sye17" points="643.558000,522.609000 655.219000,548.846000 638.894000,555.843000 635.395000,530.189000 643.558000,522.609000" fill="rgb(255,184,184)" stroke="none" stroke-width="1"/><path id="efg7zdnh0sye18" d="M832.960850,480.779430C832.960850,480.779430,856.283080,691.262560,847.537240,691.845620C838.791400,692.428680,821.882790,703.506740,821.882790,695.927010C821.882790,688.347280,808.472500,589.810860,808.472500,589.810860L795.645280,539.085000L795.645280,609.051700L809.055560,688.347290C809.055560,688.347290,796.228330,705.255900,786.899440,695.343960L767.075540,617.797540C767.075540,617.797540,740.838000,500.020270,742.004150,490.691380C742.004150,490.691380,802.058890,439.382470,832.960850,480.779430Z" transform="matrix(1 0 0 1 -160.25000000000000 -159.32499999999999)" fill="rgb(19,19,51)" stroke="none" stroke-width="1"/><path id="efg7zdnh0sye19" d="M828.296400,707.005070C828.296400,707.005070,832.960850,697.093070,843.455850,703.506740L852.201690,714.001740C852.201690,714.001740,874.750000,732.675280,858.750000,736.675280C842.258690,740.798110,832.377790,736.412020,832.377790,736.412020C832.377790,736.412020,829.462510,734.662860,827.130290,734.662860C824.798070,734.662860,819.550560,730.581470,819.550560,729.415350C819.550560,728.249230,821.299730,707.588130,821.299730,707.588130C822.651432,706.929667,824.267853,707.160582,825.381120,708.171180C827.130290,709.920350,828.296400,707.005070,828.296400,707.005070Z" transform="matrix(1 0 0 1 -160.25000000000000 -159.32499999999999)" fill="rgb(60,60,60)" stroke="none" stroke-width="1"/><path id="efg7zdnh0sye20" d="M793.896110,703.506740C793.896110,703.506740,804.974170,694.760900,810.221670,704.672850C810.221670,704.672850,813.525670,705.838960,813.914360,704.672850C814.303050,703.506740,817.218360,702.923680,817.218360,709.337290C817.218360,715.750900,820.384470,731.747580,817.469190,732.330630C814.553910,732.913680,811.638640,734.662860,812.221690,736.995080C812.804740,739.327300,809.055580,739.656190,795.645300,739.073140C782.235020,738.490090,781.651960,733.242580,781.651960,733.242580C781.651960,733.242580,781.651960,725.662860,785.150290,721.581470C788.648620,717.500080,793.896110,703.506740,793.896110,703.506740Z" transform="matrix(1 0 0 1 -160.25000000000000 -159.32499999999999)" fill="rgb(60,60,60)" stroke="none" stroke-width="1"/><path id="efg7zdnh0sye21" d="M772.323050,321.605200C772.323050,321.605200,769.407770,343.178270,788.065550,350.757990C806.723330,358.337710,746.668550,383.409120,740.838030,368.832720C735.007510,354.256320,742.004150,349.591880,742.004150,349.591880C742.004150,349.591880,747.834700,343.761320,742.587200,328.018820Z" transform="matrix(1 0 0 1 -160.25000000000000 -159.32499999999999)" fill="rgb(255,184,184)" stroke="none" stroke-width="1"/><circle id="efg7zdnh0sye22" r="25.654400" transform="matrix(1 0 0 1 593.41499999999996 151.78500000000000)" fill="rgb(255,184,184)" stroke="none" stroke-width="1"/><path id="efg7zdnh0sye23" d="M783.401110,357.754660C783.401110,357.754660,765.909430,367.083550,749.000820,360.086890C732.092210,353.090230,732.675250,383.409120,732.675250,383.409120L741.421090,406.148290L802.058890,400.317730L797.977500,365.334390Z" transform="matrix(1 0 0 1 -160.25000000000000 -159.32499999999999)" fill="rgb(242,242,242)" stroke="none" stroke-width="1"/><path id="efg7zdnh0sye24" d="M774.710690,337.804320C781.001864,339.139165,786.344913,343.261901,789.231690,349.008830L817.218370,357.754660L824.215040,367.666610L816.052260,439.382470C816.052260,439.382470,831.211710,453.958860,831.211710,462.121650C831.211710,470.284440,849.869490,498.271100,840.540600,494.772770C831.211710,491.274440,814.303090,479.030260,814.303090,479.030260C814.303090,479.030260,771.740020,480.779430,758.329740,492.440550C744.919460,504.101670,739.671950,500.603330,739.671950,500.603330C739.671950,500.603330,725.678610,439.965530,725.095560,430.636630C724.512510,421.307730,708.186940,365.334390,708.186940,365.334390L737.339730,349.008830L744.765110,340.583740L765.326410,373.497170L783.984160,350.758000C783.984160,350.758000,774.766100,343.508430,774.710690,337.804320Z" transform="matrix(1 0 0 1 -160.25000000000000 -159.32499999999999)" fill="rgb(50,34,86)" stroke="none" stroke-width="1"/><path id="efg7zdnh0sye25" d="M832.960850,412.561900L836.459180,431.219690C836.459180,431.219690,852.201690,489.525270,849.869460,509.349160C849.869460,509.349160,851.618630,553.661400,841.706680,548.413900C831.794730,543.166400,837.042240,511.098330,837.042240,511.098330L823.048900,453.375810L815.469170,419.558570Z" transform="matrix(1 0 0 1 -160.25000000000000 -159.32499999999999)" fill="rgb(255,184,184)" stroke="none" stroke-width="1"/><path id="efg7zdnh0sye26" d="M818.384450,364.168280L824.215010,367.666610C824.215010,367.666610,846.371130,413.728020,841.123630,417.226350C835.876130,420.724680,813.137000,428.304410,813.137000,428.304410Z" transform="matrix(1 0 0 1 -160.25000000000000 -159.32499999999999)" fill="rgb(50,34,86)" stroke="none" stroke-width="1"/><polygon id="efg7zdnh0sye27" points="561.930000,206.010000 548.228000,205.718000 545.022000,211.257000 549.103000,267.814000 570.093000,272.478000 561.930000,206.010000" fill="rgb(50,34,86)" stroke="none" stroke-width="1"/><path id="efg7zdnh0sye28" d="M774.556080,289.413180L779.180170,287.731690C779.180170,287.731690,769.511670,278.063180,756.059720,278.903960L759.843160,275.120580C759.843160,275.120580,750.594980,271.757660,742.187580,280.585390C737.767980,285.225940,732.654430,290.680650,729.466670,296.825330L724.514590,296.825330L726.581400,300.958960L719.347560,305.092580L726.772390,304.350080C726.069032,307.918814,726.311130,311.609440,727.474660,315.055710L729.156090,319.679710C729.156090,319.679710,735.882090,306.227890,735.882090,304.546400L735.882090,308.750100C735.882090,308.750100,740.506180,304.966780,740.506180,302.444580L743.028390,305.387170L744.289490,300.763080L759.843190,305.387170L757.320980,301.603860L766.989490,302.864970L763.206050,298.240880C763.206050,298.240880,774.135660,303.705680,774.556110,308.329770C774.976560,312.953860,777.862110,318.981420,777.862110,318.981420L781.360440,314.900030C781.360440,314.900030,786.746800,295.718700,774.556080,289.413180Z" transform="matrix(1 0 0 1 -160.25000000000000 -159.32499999999999)" fill="rgb(101,67,33)" stroke="none" stroke-width="1"/><ellipse id="efg7zdnh0sye29" rx="2.040700" ry="5.247500" transform="matrix(1 0 0 1 614.98800000000006 152.07700000000000)" fill="rgb(255,184,184)" stroke="none" stroke-width="1"/><path id="efg7zdnh0sye30" d="M442.760000,356.675280C442.760000,356.675280,511.750000,320.675280,559.750000,356.675280C607.750000,392.675280,692.710000,360.076850,692.710000,360.076850" transform="matrix(1 0 0 1 -160.25000000000000 -159.32499999999999)" opacity="0.3" fill="rgb(255,255,255)" stroke="none" stroke-width="1"/><circle id="efg7zdnh0sye31" r="11" transform="matrix(1 0 0 1 407.75000000000000 552.67499999999995)" fill="rgb(255,255,255)" stroke="none" stroke-width="1"/></svg>